<svg id="Capa_1" data-name="Capa 1" xmlns="http://www.w3.org/2000/svg" viewBox="0 0 100 100"><title>css</title><polygon id="polygon2989" points="74.2 22 69.8 71.5 50 77 30.2 71.5 25.8 22 74.2 22" fill="#264de4"/><polygon id="polygon2991" points="66.3 67.6 70.1 25.3 50.2 25.3 50.2 72 66.3 67.6" fill="#2965f1"/><polygon id="polygon2993" points="34.9 44 35.4 50.7 50.2 50.7 50.2 44 34.9 44" fill="#ebebeb"/><polygon id="polygon2995" points="50.2 30.8 50.2 30.8 33.7 30.8 34.3 37.4 50.2 37.4 50.2 30.8" fill="#ebebeb"/><polygon id="polygon2997" points="50.2 65.8 50.2 59.5 50.2 59.5 43.5 57.7 43 52.9 39.7 52.9 36.9 52.9 37.8 62.4 50.2 65.8 50.2 65.8" fill="#ebebeb"/><polygon id="polygon3005" points="57.9 50.7 57.2 58.7 50.2 60.6 50.2 67 62.9 63.5 63 62.4 64.5 46.1 64.6 44.5 65.8 31.9 50.2 31.9 50.2 37.4 59.3 37.4 58.8 44 50.2 44 50.2 50.7 57.9 50.7" fill="#fff"/></svg>