<svg id="Capa_1" data-name="Capa 1" xmlns="http://www.w3.org/2000/svg" viewBox="0 0 100 100"><title>figma</title><path id="path0_fill" data-name="path0 fill" d="M48.3,67.4V58.5H39.5A9.6,9.6,0,0,0,30,66.2,9.3,9.3,0,0,0,40.7,76.9,9.5,9.5,0,0,0,48.3,67.4Z" fill="#0acf83"/><path id="path1_fill" data-name="path1 fill" d="M39.7,40.3h8.6V58.5H39.2a9.1,9.1,0,0,1-9.1-9.9C30.5,43.8,34.9,40.3,39.7,40.3Z" fill="#a259ff"/><path id="path1_fill-2" data-name="path1 fill" d="M39.7,22h8.6V40.3H39.2a9.2,9.2,0,0,1-9.1-10C30.5,25.5,34.9,22,39.7,22Z" fill="#f24e1e"/><path id="path2_fill" data-name="path2 fill" d="M48.3,22H57c4.8,0,9.2,3.5,9.6,8.3a9.2,9.2,0,0,1-9.1,10H48.3Z" fill="#ff7262"/><path id="path3_fill" data-name="path3 fill" d="M67,49.1a9.3,9.3,0,1,1-9.2-9.2A9.2,9.2,0,0,1,67,49.1Z" fill="#1abcfe"/></svg>