<svg id="Capa_1" data-name="Capa 1" xmlns="http://www.w3.org/2000/svg" xmlns:xlink="http://www.w3.org/1999/xlink" viewBox="0 0 100 100"><defs><linearGradient id="Degradado_sin_nombre_2" x1="-6.59" y1="101.62" x2="-6.15" y2="101.3" gradientTransform="matrix(95, 0, 0, -131, 655, 13343.98)" gradientUnits="userSpaceOnUse"><stop offset="0" stop-color="#fff" stop-opacity="0.1"/><stop offset="0.14" stop-color="#fff" stop-opacity="0.08"/><stop offset="0.61" stop-color="#fff" stop-opacity="0.02"/><stop offset="1" stop-color="#fff" stop-opacity="0"/></linearGradient></defs><title>firebase</title><path d="M30,67.3,36.8,24a1.4,1.4,0,0,1,1-1.1,1.4,1.4,0,0,1,1.3.7l7,13,2.8-5.3a1.3,1.3,0,0,1,2.2,0L70,67.3Z" fill="#ffa000"/><path d="M53.4,49.5,46.1,35.7,30,66.4Z" fill="#f57c00"/><path d="M70,66.4,64.8,34.3a1.1,1.1,0,0,0-.8-1,1.4,1.4,0,0,0-1.3.3L30,66.4,48.1,76.5a3.5,3.5,0,0,0,3.7,0L70,66.4Z" fill="#ffca28"/><path d="M64.8,35.2a1.3,1.3,0,0,0-.8-1,1.4,1.4,0,0,0-1.3.3l-6.5,6.6-5.1-9.8a1.3,1.3,0,0,0-2.2,0l-2.8,5.3-7-13a1.4,1.4,0,0,0-1.3-.7,1.4,1.4,0,0,0-1,1.1L30,67.3h.2L62.7,34.9a1.1,1.1,0,0,1,1.3-.3,1.2,1.2,0,0,1,.8.9L70,67.3h0L64.8,35.2ZM30.1,66.3l6.7-42.9a1.3,1.3,0,0,1,1-1.1,1.2,1.2,0,0,1,1.3.7l7,13,2.8-5.3a1.2,1.2,0,0,1,2.2,0l5,9.5-26,26.1Z" fill="#fff" fill-opacity="0.2"/><path d="M51.8,76.2a3.5,3.5,0,0,1-3.7,0L30,66.1v.3L48.1,76.5a3.5,3.5,0,0,0,3.7,0L70,66.4v-.3L51.8,76.2Z" fill="#a52714" opacity="0.2" style="isolation:isolate"/><path id="b" d="M64.8,34.3a1.2,1.2,0,0,0-.9-1,1.3,1.3,0,0,0-1.2.3l-6.5,6.5-5.1-9.7a1.2,1.2,0,0,0-2.2,0l-2.8,5.3-7-13a1.1,1.1,0,0,0-1.3-.7,1.3,1.3,0,0,0-1,1.1L30.1,66.4l18,10.1a4,4,0,0,0,3.7,0L69.9,66.4,64.8,34.3Z" fill="url(#Degradado_sin_nombre_2)"/></svg>