<svg id="Capa_1" data-name="Capa 1" xmlns="http://www.w3.org/2000/svg" viewBox="0 0 100 100"><title>gitHub</title><rect x="29" y="32" width="39" height="36" fill="#fff"/><rect x="42" y="66" width="16" height="11" fill="#fff"/><rect x="33" y="66" width="13" height="5" fill="#fff"/><path d="M40.8,23.4A27.2,27.2,0,0,0,23.1,41.5c-4.8,16.1,4.3,30.9,18,35.4,1.4.3,1.9-.6,1.9-1.3V70.4c-7.1,1.3-8.9-1.8-9.5-3.4s-1.7-3.3-2.9-3.9-2.4-1.9,0-1.9,3.8,2,4.3,2.9c2.6,4.2,6.6,3,8.2,2.3a6.4,6.4,0,0,1,1.8-3.8c-6.2-.7-12.8-3.1-12.8-13.9A11,11,0,0,1,35,41.1a9.7,9.7,0,0,1,.3-7.4s2.3-.8,7.7,2.9a24.4,24.4,0,0,1,7.1-1,23.2,23.2,0,0,1,7,1c5.4-3.7,7.8-2.9,7.8-2.9a10.8,10.8,0,0,1,.3,7.4A10.9,10.9,0,0,1,68,48.7c0,10.8-6.5,13.2-12.8,13.9,1,.9,1.9,2.6,1.9,5.3s-.1,6.8-.1,7.7.6,1.6,2,1.3A28.2,28.2,0,0,0,78.2,50.2C78.2,31.6,60.3,17.3,40.8,23.4Z" fill="#1b1f23" fill-rule="evenodd"/></svg>