<svg id="Capa_1" data-name="Capa 1" xmlns="http://www.w3.org/2000/svg" viewBox="0 0 100 100"><title>illustrator</title><path d="M32.4,22H67.6a9.8,9.8,0,0,1,9.7,9.7V65.3A9.8,9.8,0,0,1,67.6,75H32.4a9.8,9.8,0,0,1-9.7-9.7V31.7A9.8,9.8,0,0,1,32.4,22Z" fill="#300"/><path d="M48.8,53.2H39.5l-1.9,5.9a.5.5,0,0,1-.5.3H33.8c-.3,0-.4-.1-.3-.4l7.2-20.6a2.5,2.5,0,0,1,.2-.7,6.6,6.6,0,0,0,.1-1.4l.2-.3h5.7c.2,0,.3.1.3.2l8.1,22.9c.1.2,0,.3-.2.3H51.3c-.2,0-.4-.1-.4-.3Zm-7.5-4.7H47c-.2-.5-.3-1-.5-1.6L45.9,45a17.2,17.2,0,0,1-.7-2.1l-.6-2c-.2-.6-.3-1.2-.5-1.8h0a24.5,24.5,0,0,1-.8,2.9c-.3,1.1-.7,2.2-1,3.4S41.6,47.6,41.3,48.5ZM60.8,39a2.5,2.5,0,0,1-2.1-.8,3,3,0,0,1-.8-2.1,2.7,2.7,0,0,1,.9-2,2.8,2.8,0,0,1,2-.8,2.9,2.9,0,0,1,2.1.8,2.6,2.6,0,0,1,.7,2,2.4,2.4,0,0,1-.8,2.1,2.3,2.3,0,0,1-2,.8ZM58.9,59.4a.3.3,0,0,1-.3-.3V41c0-.2.1-.3.2-.3H63a.3.3,0,0,1,.3.3V59c0,.3-.1.4-.3.4Z" fill="#ff9a00"/></svg>