<svg id="Capa_1" data-name="Capa 1" xmlns="http://www.w3.org/2000/svg" viewBox="0 0 100 100"><title>js</title><rect x="22.5" y="22" width="55" height="55" fill="#f7df1e"/><path d="M59.5,64.6c1.2,1.9,2.6,3.2,5.2,3.2s3.5-1.1,3.5-2.6-1.4-2.4-3.8-3.4l-1.3-.6c-3.7-1.6-6.3-3.6-6.3-7.9s3-6.9,7.7-6.9a7.7,7.7,0,0,1,7.4,4.2l-4,2.6A3.6,3.6,0,0,0,64.5,51,2.2,2.2,0,0,0,62,53.2c0,1.6,1,2.2,3.2,3.2l1.3.5c4.5,2,7,3.9,7,8.3s-3.7,7.3-8.7,7.3-8-2.4-9.5-5.4Zm-19-.2c.8,1.5,1.5,2.7,3.3,2.7s2.8-.6,2.8-3.2V46.1h5.1V63.9c0,5.4-3.1,7.9-7.7,7.9A8,8,0,0,1,36.3,67Z"/></svg>