<svg id="Capa_1" data-name="Capa 1" xmlns="http://www.w3.org/2000/svg" viewBox="0 0 100 100"><title>tailwind</title><path d="M49,22.9c-15.9.5-20.6,11.9-21.7,18,1.5-2.3,5.9-7.3,12.4-7.3s13.4,8.5,17,11.2a26.7,26.7,0,0,0,24.3,4c9-2.7,13.2-12.3,14.1-16.9-4.4,6-11,9.5-19.2,5.3C70.2,34.3,66,22.4,49,22.9Z" fill="#07b6d5"/><path d="M26.6,49.9C10.7,50.4,6,61.8,4.9,67.9c1.4-2.3,5.8-7.3,12.4-7.3s13.4,8.5,16.9,11.2a26.8,26.8,0,0,0,24.3,4c9-2.7,13.2-12.3,14.2-16.9-4.4,5.9-11.1,9.5-19.3,5.3C47.8,61.3,43.6,49.4,26.6,49.9Z" fill="#07b6d5"/></svg>